<svg preserveAspectRatio="none" overflow="visible" style="display: block;" width="245.813" height="237.76" viewBox="0 0 245.813 237.76" fill="none" xmlns="http://www.w3.org/2000/svg">
<g id="Hexagon">
<path id="Vector" d="M120.341 25.008C122.179 23.9363 124.451 23.9317 126.294 24.996L202.518 69.0039C204.362 70.0683 205.494 72.0381 205.485 74.1658L205.107 162.942C205.098 165.041 203.979 166.979 202.165 168.037L125.472 212.752C123.634 213.824 121.362 213.829 119.518 212.764L43.2943 168.756C41.451 167.692 40.319 165.722 40.328 163.594L40.7061 74.8182C40.715 72.7187 41.8338 70.781 43.6475 69.7235L120.341 25.008Z" fill="url(#paint0_linear_0_4)"/>
<path id="Vector_2" d="M120.108 33.7788C121.779 32.8163 123.851 32.8232 125.538 33.7969L195.275 74.0595C196.961 75.0332 198.003 76.8243 198.005 78.7529L198.094 159.221C198.097 161.124 197.086 162.875 195.436 163.824L125.705 203.981C124.033 204.944 121.961 204.937 120.275 203.963L50.538 163.701C48.8515 162.727 47.8095 160.936 47.8073 159.007L47.7184 78.5395C47.7163 76.6365 48.7273 74.8854 50.3764 73.9357L120.108 33.7788Z" fill="url(#paint1_linear_0_4)"/>
</g>
<defs>
<linearGradient id="paint0_linear_0_4" x1="82.22" y1="-0.450348" x2="163.485" y2="238.246" gradientUnits="userSpaceOnUse">
<stop stop-color="#596880"/>
<stop offset="0.697115" stop-color="#2F3C51"/>
</linearGradient>
<linearGradient id="paint1_linear_0_4" x1="85.2146" y1="10.5162" x2="157.824" y2="228.169" gradientUnits="userSpaceOnUse">
<stop stop-color="#222B3A"/>
<stop offset="1" stop-color="#2B3647"/>
</linearGradient>
</defs>
</svg>
