<svg preserveAspectRatio="none" overflow="visible" style="display: block;" width="16" height="16" viewBox="0 0 16 16" fill="none" xmlns="http://www.w3.org/2000/svg">
<path id="Vector" d="M15.8066 5.51377L14.3355 4.04264C14.2168 3.92555 14.0586 3.85717 13.892 3.851C13.7254 3.84483 13.5625 3.90131 13.4355 4.0093C13.2394 4.17623 12.9877 4.26339 12.7304 4.25351C12.473 4.24363 12.2288 4.13743 12.0461 3.95596C11.8647 3.77324 11.7586 3.52906 11.7487 3.27179C11.7388 3.01452 11.8259 2.76293 11.9927 2.56684C12.1007 2.43981 12.1572 2.27693 12.151 2.11031C12.1449 1.9437 12.0765 1.78545 11.9594 1.66675L10.487 0.193952C10.3626 0.0697537 10.194 0 10.0182 0C9.84236 0 9.67374 0.0697537 9.54931 0.193952L7.20422 2.53883C7.05943 2.68414 6.95025 2.861 6.88521 3.05555C6.87254 3.09295 6.85143 3.12693 6.8235 3.15486C6.79558 3.18278 6.7616 3.2039 6.7242 3.21656C6.52958 3.2816 6.35271 3.39093 6.20751 3.53592L0.193942 9.54981C0.0697501 9.67424 0 9.84287 0 10.0187C0 10.1945 0.0697501 10.3631 0.193942 10.4876L1.66667 11.9587C1.78535 12.0758 1.9436 12.1442 2.1102 12.1503C2.27681 12.1565 2.43968 12.1 2.5667 11.992C2.76234 11.8238 3.01434 11.7356 3.2722 11.7453C3.53007 11.755 3.77475 11.8618 3.95721 12.0442C4.13968 12.2267 4.24645 12.4714 4.25613 12.7293C4.26582 12.9872 4.17769 13.2392 4.00943 13.4348C3.90144 13.5619 3.84496 13.7247 3.85113 13.8914C3.85731 14.058 3.92567 14.2162 4.04276 14.3349L5.51382 15.806C5.63825 15.9302 5.80687 16 5.98267 16C6.15847 16 6.32709 15.9302 6.45152 15.806L12.4651 9.79216C12.61 9.64702 12.7193 9.47027 12.7844 9.27578C12.797 9.23826 12.8182 9.20416 12.8462 9.17617C12.8742 9.14817 12.9083 9.12705 12.9458 9.11444C13.1402 9.04938 13.3169 8.94018 13.4621 8.79541L15.8069 6.45019C15.9306 6.32577 16.0001 6.1574 16 5.98191C15.9999 5.80643 15.9304 5.63811 15.8066 5.51377ZM8.19392 4.52535C8.1444 4.57489 8.08559 4.61419 8.02088 4.641C7.95616 4.66781 7.88679 4.68162 7.81674 4.68162C7.74669 4.68162 7.67733 4.66781 7.61261 4.641C7.54789 4.61419 7.48909 4.57489 7.43956 4.52535L7.05588 4.14165C6.95829 4.04111 6.90418 3.90622 6.90523 3.76611C6.90629 3.626 6.96242 3.49194 7.06152 3.39288C7.16061 3.29383 7.29469 3.23775 7.43479 3.23676C7.57489 3.23576 7.70976 3.28994 7.81024 3.38758L8.19392 3.77095C8.24346 3.82048 8.28276 3.87928 8.30957 3.944C8.33638 4.00872 8.35018 4.07809 8.35018 4.14815C8.35018 4.2182 8.33638 4.28757 8.30957 4.35229C8.28276 4.41701 8.24346 4.47582 8.19392 4.52535ZM9.66065 5.99215C9.56063 6.0921 9.42503 6.14825 9.28363 6.14825C9.14224 6.14825 9.00663 6.0921 8.90662 5.99215L8.53994 5.62545C8.4904 5.57591 8.45111 5.51711 8.42431 5.45239C8.3975 5.38767 8.3837 5.3183 8.3837 5.24825C8.3837 5.17819 8.3975 5.10883 8.42431 5.04411C8.45111 4.97939 8.4904 4.92058 8.53994 4.87105C8.63997 4.77101 8.77565 4.7148 8.91712 4.7148C8.98717 4.7148 9.05653 4.7286 9.12125 4.75541C9.18596 4.78222 9.24477 4.82151 9.2943 4.87105L9.66098 5.23775C9.71069 5.28727 9.75014 5.34612 9.77707 5.41093C9.804 5.47573 9.81788 5.5452 9.81791 5.61538C9.81794 5.68555 9.80412 5.75504 9.77725 5.81987C9.75038 5.88469 9.71098 5.94358 9.66131 5.99315L9.66065 5.99215ZM11.1274 7.45895C11.0778 7.50849 11.019 7.54779 10.9543 7.5746C10.8896 7.60142 10.8202 7.61522 10.7502 7.61522C10.6801 7.61522 10.6108 7.60142 10.5461 7.5746C10.4813 7.54779 10.4225 7.50849 10.373 7.45895L10.0063 7.09225C9.90874 6.99172 9.85463 6.85682 9.85568 6.71671C9.85674 6.57661 9.91287 6.44254 10.012 6.34349C10.1111 6.24444 10.2451 6.18835 10.3852 6.18736C10.5253 6.18637 10.6602 6.24054 10.7607 6.33818L11.1274 6.70488C11.1772 6.75433 11.2168 6.81313 11.2439 6.87791C11.271 6.9427 11.285 7.01219 11.2851 7.0824C11.2853 7.15262 11.2716 7.22217 11.2448 7.28707C11.218 7.35198 11.1787 7.41095 11.129 7.46062L11.1274 7.45895ZM12.6084 8.94375C12.5589 8.9933 12.5001 9.03259 12.4354 9.05941C12.3707 9.08622 12.3013 9.10002 12.2312 9.10002C12.1612 9.10002 12.0918 9.08622 12.0271 9.05941C11.9624 9.03259 11.9036 8.9933 11.8541 8.94375L11.4727 8.56038C11.4221 8.511 11.3819 8.45205 11.3543 8.38697C11.3267 8.32189 11.3123 8.25197 11.312 8.18128C11.3116 8.11059 11.3253 8.04054 11.3523 7.9752C11.3793 7.90985 11.419 7.85053 11.4691 7.80066C11.5192 7.7508 11.5787 7.71139 11.6442 7.68473C11.7097 7.65807 11.7798 7.6447 11.8505 7.64538C11.9211 7.64606 11.991 7.66078 12.0559 7.6887C12.1209 7.71661 12.1796 7.75716 12.2287 7.80798L12.6104 8.19102C12.6599 8.24057 12.6992 8.29939 12.726 8.36412C12.7528 8.42886 12.7666 8.49823 12.7665 8.56829C12.7665 8.63834 12.7527 8.7077 12.7258 8.77241C12.699 8.83712 12.6597 8.89591 12.6101 8.94542L12.6084 8.94375Z" fill="#57657B"/>
</svg>
